<?xml version="1.0" standalone="no"?>
<!DOCTYPE svg PUBLIC "-//W3C//DTD SVG 1.1//EN" "http://www.w3.org/Graphics/SVG/1.1/DTD/svg11.dtd" >
<svg>
<metadata>
Created by FontForge 20120731 at Fri Jul 28 10:49:24 2017
 By www-data
(c) COPYRIGHT H. BERTHOLD AG 1992 Alle Rechte vorbehalten.
</metadata>
<defs>
<font id="AkzidenzGrotConBQ-Bold" horiz-adv-x="396" >
  <font-face 
    font-family="Akzidenz-Grotesk Condensed BQ"
    font-weight="500"
    font-stretch="normal"
    units-per-em="1000"
    panose-1="0 0 0 0 0 0 0 0 0 0"
    ascent="800"
    descent="-200"
    x-height="512"
    cap-height="706"
    bbox="-111 -262 890 919"
    underline-thickness="50"
    underline-position="-75"
    stemh="93"
    stemv="117"
    unicode-range="U+0020-FB02"
  />
<missing-glyph horiz-adv-x="250" 
 />
    <glyph glyph-name=".notdef" horiz-adv-x="250" 
 />
    <glyph glyph-name="space" unicode=" " horiz-adv-x="250" 
 />
    <glyph glyph-name="exclam" unicode="!" horiz-adv-x="229" 
d="M78 706h113v-313l-19 -203h-78l-16 197v319zM75 132h119v-132h-119v132z" />
    <glyph glyph-name="quotedbl" unicode="&#x22;" 
d="M303 434h-23l-39 245c-1 11 -2 22 0 32c3 14 19 38 54 38c9 0 20 -3 28 -8c21 -13 21 -29 20 -50zM115 434h-23l-39 245c-1 11 -2 22 1 32c3 14 19 38 53 38c9 0 20 -3 28 -8c21 -13 21 -29 21 -50z" />
    <glyph glyph-name="numbersign" unicode="#" horiz-adv-x="583" 
d="M559 230h-150l-33 -230h-80l33 230h-111l-32 -230h-82l34 230h-138v77h149l16 107h-141v77h151l31 215h80l-30 -215h110l31 215h78l-29 -215h138v-77h-149l-16 -107h140v-77zM340 307l15 107h-111l-15 -107h111z" />
    <glyph glyph-name="dollar" unicode="$" horiz-adv-x="417" 
d="M188 783h51v-81c15 -2 49 -5 81 -31c34 -27 51 -63 51 -146c0 -15 -1 -30 -1 -45h-112v66c0 19 0 39 -14 53s-32 14 -38 14c-30 0 -43 -18 -48 -28c-2 -4 -5 -15 -6 -28c0 -6 -1 -12 -1 -19c0 -34 15 -47 26 -59l149 -155c12 -12 20 -21 30 -35c25 -36 28 -69 28 -113
c0 -80 -22 -119 -51 -145c-37 -32 -76 -35 -94 -37v-94h-51v94c-38 2 -72 9 -102 35c-23 20 -32 42 -36 53c-7 19 -9 36 -10 74v78h111v-79c0 -6 0 -19 5 -33c12 -31 46 -33 55 -33c18 0 30 6 35 9c24 17 25 51 25 76c0 48 -17 64 -32 81l-141 144c-8 8 -18 18 -32 38
c-14 21 -29 45 -29 100c0 10 1 74 32 114c39 48 104 50 119 51v81z" />
    <glyph glyph-name="percent" unicode="%" horiz-adv-x="708" 
d="M456 715l63 -23l-265 -737l-64 22zM266 561v-235c-1 -12 0 -45 -24 -73c-32 -36 -79 -35 -94 -35c-13 0 -96 -3 -117 66c-6 18 -5 39 -5 44v226c0 19 0 33 6 51c17 50 66 66 113 66c11 0 90 0 113 -59c7 -16 7 -35 8 -51zM185 325v237c0 15 4 47 -39 47s-40 -34 -40 -48
v-241c1 -17 3 -29 20 -35c8 -3 19 -3 20 -3c5 0 14 0 24 5c12 7 14 14 15 38zM683 337v-235c-1 -27 -5 -49 -23 -71c-31 -38 -82 -37 -95 -37s-72 -3 -104 40c-3 3 -9 12 -13 23s-5 24 -6 47v226c1 19 1 34 7 52c10 30 42 65 113 65c12 0 90 1 113 -60c5 -12 7 -25 8 -50z
M602 102v237c0 5 0 11 -1 16c-1 14 -7 30 -38 30c-44 0 -41 -34 -40 -47v-242c0 -16 2 -28 18 -34c7 -3 14 -4 22 -4c4 0 13 0 23 5c17 9 16 23 16 39z" />
    <glyph glyph-name="ampersand" unicode="&#x26;" horiz-adv-x="521" 
d="M390 320h103c-6 -114 -32 -167 -64 -212c16 -18 31 -27 77 -26l-1 -85c-8 -1 -31 -6 -56 -6c-51 0 -76 21 -92 37c-48 -26 -80 -40 -134 -40c-13 0 -45 1 -78 13c-78 29 -118 101 -118 181c0 39 8 64 14 79c27 75 94 132 109 146c-5 8 -10 17 -14 26
c-5 10 -38 79 -38 138c0 53 26 110 77 134c28 13 59 13 69 13c9 0 37 0 63 -11c26 -12 73 -43 73 -116c0 -86 -52 -140 -103 -201l92 -180l6 15c8 20 14 47 15 95zM299 115l-103 187c-28 -36 -52 -70 -52 -119c0 -5 1 -21 6 -36c13 -32 46 -53 80 -53c15 0 39 3 69 21z
M229 496c9 14 18 27 27 41c16 26 19 37 19 53c0 30 -22 37 -33 37c-26 -1 -37 -28 -37 -50c0 -33 22 -77 24 -81z" />
    <glyph glyph-name="quoteright" unicode="&#x2019;" horiz-adv-x="187" 
d="M32 706h118v-133l-80 -135h-46l70 135h-62v133z" />
    <glyph glyph-name="parenleft" unicode="(" horiz-adv-x="292" 
d="M272 774l-1 -93c-14 -8 -38 -23 -62 -56c-32 -46 -36 -91 -36 -145v-391c0 -16 -1 -68 28 -113c11 -17 32 -43 71 -71l-1 -87c-19 6 -42 16 -79 40c-24 15 -106 67 -130 162c-6 27 -7 52 -8 79v402c0 28 2 81 42 140c30 43 78 83 124 108c16 9 34 17 52 25z" />
    <glyph glyph-name="parenright" unicode=")" horiz-adv-x="292" 
d="M20 -182l1 93c15 9 44 27 68 66c26 43 29 85 30 135v391c0 12 1 34 -7 64c-15 55 -48 86 -92 120l1 87c28 -9 53 -23 79 -40c24 -15 95 -61 124 -145c11 -32 13 -63 14 -96v-402c0 -21 -1 -39 -6 -60c-19 -80 -80 -140 -147 -181c-25 -15 -39 -21 -65 -32z" />
    <glyph glyph-name="asterisk" unicode="*" horiz-adv-x="333" 
d="M129 706h73v-100l91 29l23 -66l-91 -32l58 -77l-58 -44l-56 79l-57 -79l-57 39l57 82l-95 27l21 68l91 -26v100z" />
    <glyph glyph-name="plus" unicode="+" horiz-adv-x="500" 
d="M468 251h-179v-180h-79v180h-178v80h178v179h79v-179h179v-80z" />
    <glyph glyph-name="comma" unicode="," horiz-adv-x="187" 
d="M36 129h117v-129l-83 -135h-44l68 135h-58v129z" />
    <glyph glyph-name="hyphen" unicode="-" horiz-adv-x="333" 
d="M33 317h268v-99h-268v99z" />
    <glyph glyph-name="period" unicode="." horiz-adv-x="187" 
d="M35 129h117v-129h-117v129z" />
    <glyph glyph-name="slash" unicode="/" horiz-adv-x="250" 
d="M142 706h98l-129 -706h-99z" />
    <glyph glyph-name="zero" unicode="0" 
d="M366 509v-357c0 -20 -1 -34 -6 -53c-6 -25 -27 -81 -97 -101c-12 -3 -32 -7 -62 -7c-47 0 -96 7 -132 42c-8 8 -22 23 -30 49c-7 19 -9 34 -10 73v344c0 9 1 18 1 28c2 34 7 61 28 89c44 58 119 58 138 58c101 0 144 -46 160 -89c7 -19 9 -36 10 -76zM251 151v361
c0 2 1 29 -4 44c-7 23 -26 31 -48 31c-60 -1 -55 -56 -54 -70v-374c0 -14 -2 -62 51 -62c17 0 28 5 34 9c21 15 20 39 21 61z" />
    <glyph glyph-name="one" unicode="1" 
d="M187 665h78v-665h-117v507c-5 -4 -10 -8 -16 -12c-13 -8 -43 -22 -84 -29l1 92c5 2 13 3 24 8c11 4 52 25 80 54c12 13 17 20 34 45z" />
    <glyph glyph-name="two" unicode="2" 
d="M144 442h-109v81c0 40 5 73 32 104c44 48 112 47 129 47c14 0 121 2 155 -78c10 -25 12 -61 13 -66v-88c-2 -34 -3 -46 -9 -63c-13 -40 -56 -82 -122 -147c-28 -28 -65 -61 -78 -101c-3 -11 -4 -13 -5 -31h221v-100h-350v16c3 60 7 112 34 168c26 53 61 86 103 127
c10 10 21 20 31 31c19 19 41 39 52 64c7 15 7 29 8 45v76c-1 19 -3 37 -17 49c-12 9 -27 9 -32 9c-3 0 -18 0 -29 -5c-24 -12 -26 -36 -27 -59v-79z" />
    <glyph glyph-name="three" unicode="3" 
d="M145 466h-110v83c0 8 1 33 13 56c28 55 98 69 153 69c89 0 132 -38 149 -75c6 -13 10 -29 13 -59v-78c-1 -27 0 -50 -20 -71c-21 -23 -47 -27 -75 -32c27 -4 67 -10 84 -36c16 -22 15 -54 15 -79v-101c-1 -32 -4 -47 -9 -61c-16 -40 -61 -91 -159 -91
c-17 0 -123 1 -159 84c-6 14 -9 24 -11 53v81h115v-71c0 -14 1 -24 3 -29c6 -15 21 -29 54 -29c5 0 17 0 29 7c18 11 20 28 21 47v100c-1 24 1 48 -20 66c-19 16 -44 15 -66 16h-24v78h24c6 0 45 -1 66 21c17 17 16 39 16 61v50c0 7 5 44 -29 54c-9 3 -20 4 -22 4
c-7 0 -41 -2 -49 -32c-2 -7 -2 -16 -2 -17v-69z" />
    <glyph glyph-name="four" unicode="4" 
d="M192 668h139v-449h40v-93h-40v-126h-107v126h-203v93zM224 219l7 331l-112 -331h105z" />
    <glyph glyph-name="five" unicode="5" 
d="M47 665h310v-100h-216l-2 -136c15 11 46 35 98 35c81 -1 113 -53 123 -83c5 -15 6 -28 7 -61v-165c-1 -36 -4 -52 -9 -70c-29 -95 -134 -94 -157 -94c-10 0 -77 0 -121 31c-50 37 -51 100 -52 116v69h115v-68c0 -4 -1 -14 2 -25c4 -13 16 -32 49 -32c31 0 45 15 50 27
c4 9 5 19 5 28v165c1 24 1 52 -23 66c-6 4 -14 8 -30 8c-13 0 -42 -5 -56 -38c-4 -9 -6 -13 -8 -29h-92z" />
    <glyph glyph-name="six" unicode="6" 
d="M252 489v36c-1 19 0 43 -21 54c-12 6 -26 6 -30 6c-58 0 -55 -47 -56 -65l1 -131c17 14 48 41 105 41c78 0 104 -52 111 -80c3 -12 5 -25 5 -50v-155c0 -6 1 -42 -9 -68c-16 -42 -60 -86 -158 -86c-16 0 -86 0 -132 45c-18 19 -25 37 -29 46c-9 26 -8 58 -8 65v383
c0 13 1 48 21 80c31 51 97 64 152 64c45 0 111 -13 138 -55c13 -21 18 -40 20 -84v-46h-110zM253 142v121c0 35 -4 50 -19 61c-5 4 -16 10 -32 10c-5 0 -19 -1 -32 -8c-24 -14 -25 -34 -25 -58v-109c1 -22 0 -46 17 -63c15 -14 32 -14 40 -14c30 0 42 19 46 29
c3 7 4 16 5 31z" />
    <glyph glyph-name="seven" unicode="7" 
d="M20 665h359v-99c-9 -15 -18 -30 -26 -46c-19 -34 -57 -112 -86 -212c-12 -40 -50 -172 -49 -308h-125c1 41 5 77 23 157c38 168 101 304 129 359c9 18 19 34 28 51h-156v-78h-97v176z" />
    <glyph glyph-name="eight" unicode="8" 
d="M365 243v-90c-1 -47 -4 -85 -41 -119c-47 -43 -103 -43 -125 -43c-94 0 -140 43 -158 82c-7 17 -11 34 -13 70v85c1 25 1 35 4 48c10 46 35 60 73 79c-1 1 -21 10 -33 19c-37 29 -35 73 -35 88v70c1 35 4 64 26 92c9 12 21 21 34 29c38 21 91 21 101 21
c90 0 133 -37 150 -76c6 -16 9 -34 10 -70v-58c-1 -38 -2 -51 -12 -69s-23 -28 -58 -46c25 -11 37 -18 47 -27c26 -22 28 -53 30 -85zM252 143v104c-1 21 0 42 -20 56c-13 9 -28 9 -33 9c-58 0 -56 -51 -56 -66v-103c3 -33 9 -45 25 -53c10 -5 19 -7 29 -7c5 0 19 1 31 7
c22 12 22 32 24 53zM248 459v70c-1 20 -3 37 -22 47c-12 7 -23 7 -28 7c-21 0 -42 -9 -49 -31c-2 -8 -2 -17 -2 -19v-81c1 -20 3 -31 8 -39c6 -10 19 -18 44 -18c15 0 27 2 37 14c13 14 12 32 12 50z" />
    <glyph glyph-name="nine" unicode="9" 
d="M26 179h115v-42c1 -10 1 -21 4 -31c5 -13 19 -27 49 -27c8 0 45 0 54 33c2 6 2 12 2 24v141c-18 -13 -47 -39 -101 -39c-74 1 -104 38 -115 69c-4 12 -7 23 -8 48v164c1 34 3 63 22 93c8 14 21 27 34 36c23 14 58 26 117 26c91 0 135 -35 153 -74c8 -18 11 -34 12 -72
v-386c0 -35 -4 -63 -25 -92c-35 -48 -95 -59 -151 -59c-15 0 -89 -1 -131 47c-7 8 -19 23 -26 47c-3 13 -4 27 -5 41v53zM250 402v123c-1 21 -1 39 -21 53c-6 3 -16 9 -32 9c-59 -1 -56 -53 -56 -69v-116c1 -30 1 -42 13 -56c6 -7 17 -15 40 -15c20 0 32 6 38 12
c19 16 18 37 18 59z" />
    <glyph glyph-name="colon" unicode=":" horiz-adv-x="229" 
d="M76 512h120v-131h-120v131zM76 130h120v-130h-120v130z" />
    <glyph glyph-name="semicolon" unicode=";" horiz-adv-x="229" 
d="M75 512h119v-130h-119v130zM75 130h119v-130l-82 -135h-45l71 135h-63v130z" />
    <glyph glyph-name="less" unicode="&#x3c;" horiz-adv-x="500" 
d="M500 68l-500 242v86l500 242v-87l-401 -198l401 -198v-87z" />
    <glyph glyph-name="equal" unicode="=" horiz-adv-x="500" 
d="M500 160h-500v78h500v-78zM500 341h-500v78h500v-78z" />
    <glyph glyph-name="greater" unicode="&#x3e;" horiz-adv-x="500" 
d="M0 68v87l401 198l-401 198v87l500 -242v-86z" />
    <glyph glyph-name="question" unicode="?" horiz-adv-x="417" 
d="M65 463v74c0 7 -1 40 4 67c9 59 43 111 162 111c14 0 72 2 115 -30c6 -4 21 -17 30 -36s13 -45 13 -89c0 -18 -1 -36 -2 -54c-2 -53 -10 -61 -39 -105l-50 -73c-28 -39 -38 -57 -41 -81c-2 -12 -2 -24 -2 -35v-22h-113v35c-1 17 0 25 1 33c4 35 15 51 33 80l66 102
c4 7 9 15 14 22c15 23 15 34 14 60v63c-1 11 -3 49 -45 49c-33 0 -44 -19 -47 -32c-2 -5 -2 -12 -2 -22v-117h-111zM142 130h116v-130h-116v130z" />
    <glyph glyph-name="at" unicode="@" horiz-adv-x="896" 
d="M565 433l15 62h68l-33 -150c-10 -48 -28 -125 -28 -173c0 -30 15 -42 30 -42c28 0 69 35 100 90c19 34 52 107 52 201c0 155 -102 237 -248 237c-30 0 -100 -5 -177 -48c-27 -14 -85 -52 -134 -118c-31 -43 -85 -134 -85 -260c0 -30 1 -126 78 -206
c89 -93 222 -95 251 -95c50 0 153 9 268 91c9 7 20 15 29 22c14 11 25 22 36 33l32 -41c-11 -12 -23 -23 -35 -34c-49 -41 -167 -126 -331 -126c-18 0 -63 1 -114 15c-93 24 -270 101 -270 347c0 147 67 252 106 302c52 65 167 172 355 172c110 0 172 -38 210 -74
c42 -38 87 -101 87 -215c0 -94 -34 -177 -49 -206c-6 -13 -30 -57 -65 -91c-15 -14 -59 -56 -117 -56c-11 0 -58 2 -77 47c-6 16 -6 35 -6 38c-16 -22 -66 -84 -144 -84c-12 0 -44 2 -74 25c-48 36 -56 93 -56 141c0 13 0 42 9 79c19 73 67 152 136 186c11 5 34 16 67 16
c15 0 59 -3 92 -45c10 -12 16 -26 22 -40zM540 348c0 6 1 24 -4 41s-25 64 -77 64c-19 0 -56 -6 -87 -47c-49 -64 -54 -147 -54 -168c0 -19 2 -44 12 -62c7 -13 17 -22 23 -26c19 -14 35 -14 43 -14c19 0 55 8 88 48c22 27 56 84 56 164z" />
    <glyph glyph-name="A" unicode="A" horiz-adv-x="437" 
d="M147 706h149l132 -706h-132l-17 115h-120l-19 -115h-130zM175 224h90l-43 303z" />
    <glyph glyph-name="B" unicode="B" horiz-adv-x="479" 
d="M50 706h219c42 0 82 1 117 -27c40 -31 41 -72 42 -117v-63c0 -2 0 -31 -4 -50c-13 -59 -57 -65 -78 -69c41 -8 57 -18 70 -34c22 -29 19 -62 20 -95v-100c0 -11 -1 -22 -1 -32c-1 -17 -5 -79 -62 -105c-31 -14 -67 -13 -100 -14h-223v706zM180 427h47c18 0 27 0 35 2
c25 4 37 20 37 63v48c0 17 0 22 -3 31c-8 33 -37 33 -64 34h-52v-178zM180 102h55c11 0 23 0 33 2c28 4 41 21 40 69v83c0 21 0 29 -4 39c-10 29 -42 30 -68 30h-56v-223z" />
    <glyph glyph-name="C" unicode="C" horiz-adv-x="458" 
d="M302 449v89c-1 9 -1 17 -2 25c-3 43 -24 58 -65 58c-18 0 -28 -4 -35 -8c-24 -15 -24 -44 -25 -69v-378c0 -16 0 -20 2 -29c5 -35 27 -51 62 -51c21 0 33 6 41 11c20 15 21 33 22 76v92h128v-100c-1 -28 -1 -58 -10 -84c-34 -98 -165 -96 -180 -96c-30 0 -58 5 -67 7
c-52 10 -98 33 -119 84c-10 26 -10 48 -10 74v384c1 12 1 25 2 37c2 45 14 80 50 109c29 23 68 41 146 41c45 0 93 -6 132 -32c19 -13 35 -31 44 -52c11 -23 12 -37 12 -80v-108h-128z" />
    <glyph glyph-name="D" unicode="D" horiz-adv-x="479" 
d="M50 706h239c19 -1 59 -3 97 -35c48 -41 51 -93 52 -151v-330c0 -13 0 -26 -1 -39c-4 -75 -38 -112 -66 -129c-36 -20 -73 -20 -112 -22h-209v706zM180 103h46c12 0 25 -1 37 2c42 7 45 39 45 74v352c0 22 1 44 -18 60c-17 14 -39 12 -59 12h-51v-500z" />
    <glyph glyph-name="E" unicode="E" horiz-adv-x="417" 
d="M50 706h342v-107h-212v-166h200v-107h-200v-217h222v-109h-352v706z" />
    <glyph glyph-name="F" unicode="F" 
d="M50 706h346v-109h-215v-177h202v-105h-202v-315h-131v706z" />
    <glyph glyph-name="G" unicode="G" horiz-adv-x="479" 
d="M303 478v68c0 24 2 48 -22 63c-6 4 -19 10 -39 10c-6 0 -26 0 -41 -11c-20 -14 -25 -36 -25 -80v-373c0 -4 -1 -21 5 -37c6 -15 19 -32 56 -32c7 0 33 -1 51 18c15 18 15 41 15 63v110h-80v106h210v-383h-111v42c-14 -15 -19 -20 -28 -27c-38 -29 -82 -30 -98 -30
c-88 0 -128 47 -142 82c-8 20 -8 41 -10 62v402c1 32 2 64 13 94c29 78 116 96 188 96c57 0 134 -12 169 -65c20 -30 19 -65 19 -75v-103h-130z" />
    <glyph glyph-name="H" unicode="H" horiz-adv-x="479" 
d="M50 706h130v-277h119v277h130v-706h-130v323h-119v-323h-130v706z" />
    <glyph glyph-name="I" unicode="I" horiz-adv-x="229" 
d="M50 706h129v-706h-129v706z" />
    <glyph glyph-name="J" unicode="J" 
d="M215 706h131v-546c0 -6 1 -45 -8 -75c-29 -105 -151 -100 -172 -100c-12 0 -75 -1 -117 31c-11 7 -28 23 -39 54c-8 25 -8 50 -9 59v95h121v-67c-1 -36 4 -54 22 -63c8 -5 16 -6 24 -6c6 0 17 0 28 9c16 11 19 29 19 64v545z" />
    <glyph glyph-name="K" unicode="K" horiz-adv-x="458" 
d="M50 706h132v-275l141 275h134l-161 -305l165 -401h-141l-138 345v-345h-132v706z" />
    <glyph glyph-name="L" unicode="L" horiz-adv-x="375" 
d="M50 706h130v-599h191v-107h-321v706z" />
    <glyph glyph-name="M" unicode="M" horiz-adv-x="688" 
d="M50 706h212l83 -494l84 494h209v-706h-130l12 612l-114 -612h-121l-117 612l10 -612h-128v706z" />
    <glyph glyph-name="N" unicode="N" horiz-adv-x="500" 
d="M450 0h-164l-125 529l11 -529h-122v706h167l127 -518l-13 518h119v-706z" />
    <glyph glyph-name="O" unicode="O" horiz-adv-x="479" 
d="M44 151v396c0 15 -3 86 44 128c26 23 75 46 154 46c102 0 156 -42 177 -83c11 -23 15 -45 16 -94v-393c-1 -45 -7 -86 -41 -119c-42 -39 -99 -47 -153 -47c-52 0 -105 7 -147 41c-21 17 -31 34 -35 44c-12 25 -14 55 -15 81zM175 530v-357c0 -21 0 -47 12 -65
c16 -21 47 -21 53 -21s25 0 41 12c24 16 23 45 23 71v365c0 4 3 36 -8 57c-6 13 -21 31 -54 31c-7 0 -26 -1 -42 -13c-29 -20 -24 -51 -25 -80z" />
    <glyph glyph-name="P" unicode="P" horiz-adv-x="458" 
d="M50 706h262c4 0 21 0 35 -3c42 -9 62 -36 69 -50c15 -30 15 -75 15 -106v-93c0 -66 -3 -98 -25 -125c-21 -26 -51 -34 -115 -35h-110v-294h-131v706zM181 395h63c27 0 42 3 50 14c9 12 9 35 9 49v72c0 20 3 41 -10 57c-15 19 -43 15 -48 15h-64v-207z" />
    <glyph glyph-name="Q" unicode="Q" horiz-adv-x="479" 
d="M414 60l71 -74l-80 -79l-89 91c-4 -1 -8 -3 -12 -4c-12 -3 -42 -9 -76 -9c-52 0 -109 11 -147 50c-15 16 -22 30 -25 38c-12 27 -12 57 -12 65v412c1 31 2 57 15 85c21 43 76 86 181 86c49 0 104 -10 144 -43c6 -5 23 -20 33 -41c11 -23 14 -43 16 -93v-397
c0 -48 -7 -64 -19 -87zM175 541v-390c1 -23 5 -62 63 -62c68 0 64 58 64 78v391c-1 20 -4 64 -62 64c-6 0 -20 0 -34 -7c-30 -13 -31 -46 -31 -74z" />
    <glyph glyph-name="R" unicode="R" horiz-adv-x="479" 
d="M50 706h260c31 0 60 -3 86 -23c42 -31 41 -80 41 -126v-76c0 -5 2 -49 -14 -76c-1 -3 -7 -12 -15 -19c-14 -12 -28 -17 -62 -25c3 0 25 -6 39 -14c56 -30 57 -90 57 -109v-144c0 -2 -1 -55 18 -83c4 -4 7 -7 12 -11h-143c-2 4 -4 7 -6 11c-5 11 -12 29 -13 57v161
c0 11 0 22 -1 34c-4 39 -33 47 -67 48h-62v-311h-130v706zM180 412h68c17 1 37 2 49 17c10 12 9 22 11 50v68c-2 27 -4 36 -15 47c-14 12 -28 11 -45 11h-68v-193z" />
    <glyph glyph-name="S" unicode="S" horiz-adv-x="458" 
d="M38 249h129v-82c1 -26 -2 -56 23 -72c8 -5 20 -10 40 -10c23 0 36 5 45 13c19 15 19 46 19 94c0 9 2 41 -14 65c-10 15 -25 24 -30 28l-123 83c-26 20 -41 29 -59 58c-15 25 -25 52 -25 112c0 10 -1 60 17 97c40 86 161 86 175 86c21 0 135 0 171 -93c8 -18 8 -25 11 -59
v-70h-130v72c-1 21 -8 51 -58 51c-30 0 -58 -11 -58 -70c0 -3 -2 -45 14 -68c4 -6 13 -13 27 -23l126 -87c9 -7 37 -27 58 -55c31 -41 28 -72 28 -122c0 -54 1 -77 -7 -104c-15 -57 -63 -108 -183 -108c-50 0 -103 7 -145 40c-23 18 -33 37 -37 48c-9 20 -12 33 -14 73v103z
" />
    <glyph glyph-name="T" unicode="T" 
d="M2 706h392v-102h-131v-604h-131v604h-130v102z" />
    <glyph glyph-name="U" unicode="U" horiz-adv-x="479" 
d="M49 706h130v-525c1 -19 0 -38 7 -55c13 -29 46 -30 54 -30c6 0 23 0 38 11c25 17 22 50 22 75v524h131v-547c-2 -42 -4 -77 -32 -113c-50 -65 -146 -61 -163 -61c-52 0 -106 11 -144 51c-7 7 -21 24 -30 48c-10 25 -12 53 -13 78v544z" />
    <glyph glyph-name="V" unicode="V" horiz-adv-x="417" 
d="M6 706h138l69 -467l64 467h133l-133 -706h-131z" />
    <glyph glyph-name="W" unicode="W" horiz-adv-x="708" 
d="M12 706h135l71 -532l76 532h123l74 -532l74 532h132l-136 -706h-137l-68 482l-76 -482h-139z" />
    <glyph glyph-name="X" unicode="X" horiz-adv-x="479" 
d="M31 706h142l67 -199l68 199h142l-141 -334l156 -372h-143l-83 245l-84 -245h-141l156 376z" />
    <glyph glyph-name="Y" unicode="Y" horiz-adv-x="417" 
d="M1 706h137l72 -356l69 356h137l-141 -497v-209h-133v218z" />
    <glyph glyph-name="Z" unicode="Z" horiz-adv-x="417" 
d="M52 706h344v-70l-231 -526h227v-110h-369v82l225 515h-196v109z" />
    <glyph glyph-name="bracketleft" unicode="[" horiz-adv-x="333" 
d="M50 759h240v-89h-122v-752h123v-90h-241v931z" />
    <glyph glyph-name="backslash" unicode="\" horiz-adv-x="354" 
d="M248 0l-222 706h80l222 -706h-80z" />
    <glyph glyph-name="bracketright" unicode="]" horiz-adv-x="333" 
d="M284 -172h-240v90h122v752h-123v89h241v-931z" />
    <glyph glyph-name="asciicircum" unicode="^" horiz-adv-x="729" 
d="M587 336h-97l-124 260l-128 -260h-96l188 370h77z" />
    <glyph glyph-name="underscore" unicode="_" horiz-adv-x="500" 
d="M510 -216h-520v79h520v-79z" />
    <glyph glyph-name="quoteleft" unicode="&#x2018;" horiz-adv-x="187" 
d="M34 438v134l75 134h43l-61 -134h61v-134h-118z" />
    <glyph glyph-name="a" unicode="a" 
d="M42 354v58c1 12 2 47 29 73c21 21 63 38 129 38c15 0 104 1 140 -64c12 -21 12 -40 12 -49v-285c0 -28 -3 -91 15 -116c1 -3 3 -5 8 -9h-125c-10 11 -12 20 -14 45c-6 -6 -11 -13 -18 -19c-13 -13 -38 -37 -85 -37c-10 0 -38 1 -62 19c-42 31 -39 92 -39 137
c0 37 -2 75 24 105c14 17 35 27 54 38l124 62v30c1 30 -3 45 -16 54c-5 3 -13 7 -26 7c-5 0 -28 0 -37 -20c-4 -9 -4 -26 -4 -48v-19h-109zM233 258l-58 -38c-4 -3 -9 -7 -10 -8c-15 -14 -17 -34 -17 -74c0 -38 5 -59 29 -59c17 1 29 9 43 18l13 11v150z" />
    <glyph glyph-name="b" unicode="b" horiz-adv-x="417" 
d="M44 706h119v-234c7 6 13 12 20 17c9 6 46 33 87 33c43 0 84 -27 100 -68c6 -18 7 -33 9 -51v-290c-2 -28 -4 -41 -8 -53c-16 -44 -56 -71 -103 -71c-15 0 -54 4 -86 35c-10 10 -15 18 -18 23l-1 -47h-119v706zM162 365v-207c0 -4 0 -13 1 -23c4 -30 17 -45 49 -45
c7 0 22 0 33 14c10 13 13 26 13 54v215c0 17 -1 34 -14 46c-9 9 -19 12 -31 12c-11 0 -36 -1 -47 -31c-3 -9 -4 -17 -4 -35z" />
    <glyph glyph-name="c" unicode="c" 
d="M250 318v62c0 13 -1 19 -2 25c-3 11 -14 33 -43 32c-14 0 -23 -4 -28 -7c-16 -11 -20 -27 -21 -62v-223c0 -18 0 -26 3 -35c6 -21 23 -32 44 -32c3 0 16 1 26 7c19 13 20 39 20 59v59h118v-58c0 -16 2 -64 -29 -103c-43 -54 -116 -52 -133 -52c-74 0 -113 23 -136 48
c-3 4 -15 19 -21 36c-9 21 -9 42 -10 65v227c2 37 4 68 28 98c43 57 123 58 139 58c12 0 119 0 152 -77c6 -15 9 -32 10 -66v-61h-117z" />
    <glyph glyph-name="d" unicode="d" horiz-adv-x="417" 
d="M253 706h119v-706h-120l1 50c-12 -17 -38 -61 -100 -60c-36 0 -59 14 -71 22c-38 28 -44 61 -43 142v233c-1 18 -5 84 52 119c9 5 30 17 59 17c44 0 74 -25 103 -52v235zM253 152v220c-1 23 -1 40 -22 51c-13 8 -23 8 -29 8c-5 0 -16 -1 -26 -8c-20 -14 -19 -35 -19 -57
v-218c-1 -30 3 -41 17 -50c4 -3 16 -8 29 -8c17 0 32 7 41 20c7 10 8 20 9 42z" />
    <glyph glyph-name="e" unicode="e" 
d="M243 169h115v-41c0 -18 0 -29 -5 -46c-20 -72 -84 -92 -152 -92c-105 0 -141 52 -154 98c-8 25 -9 61 -9 67v216c1 8 1 42 13 69c25 60 91 82 151 82c83 0 129 -42 144 -73c9 -18 11 -34 14 -73v-146h-203v-84c0 -18 0 -25 3 -34c8 -26 31 -29 41 -29c19 0 32 10 38 28
c2 6 3 18 3 18zM157 314h85v63c0 11 2 51 -41 51c-43 -1 -43 -38 -44 -51v-63z" />
    <glyph glyph-name="f" unicode="f" horiz-adv-x="250" 
d="M183 512h53v-79h-54v-433h-118v433h-53v79h53v90l3 24c5 32 20 48 30 57c28 24 63 25 99 25c15 0 30 -1 44 -2v-98c-17 2 -28 3 -35 1c-22 -5 -22 -29 -22 -34v-63z" />
    <glyph glyph-name="g" unicode="g" horiz-adv-x="417" 
d="M253 512h120v-530c-1 -11 -1 -22 -2 -33c-1 -18 -5 -69 -52 -101c-20 -14 -61 -30 -121 -30c-21 0 -31 2 -41 3c-17 3 -86 12 -108 74c-8 20 -8 42 -8 63h118c0 -2 -1 -15 2 -24c3 -11 14 -30 44 -30c14 0 22 4 27 7c20 11 21 34 21 54v79c-16 -18 -43 -50 -104 -50
c-30 0 -51 9 -61 15c-47 24 -47 68 -50 113v271c1 20 1 37 7 56c8 24 33 73 102 73c46 0 74 -21 106 -51v41zM252 143v227c0 10 4 62 -48 62c-4 0 -18 0 -29 -9c-13 -10 -18 -22 -19 -52v-228c1 -14 2 -24 4 -30c9 -26 35 -27 43 -27c50 0 48 44 49 57z" />
    <glyph glyph-name="h" unicode="h" horiz-adv-x="417" 
d="M44 706h117l1 -235c13 14 45 51 104 51c46 0 85 -25 100 -70c4 -12 6 -25 7 -51v-401h-119v364c0 21 0 30 -4 40c-7 15 -23 23 -40 23c-32 0 -42 -24 -45 -35c-2 -8 -2 -12 -2 -21v-371h-119v706z" />
    <glyph glyph-name="i" unicode="i" horiz-adv-x="208" 
d="M44 706h120v-120h-120v120zM44 512h120v-512h-120v512z" />
    <glyph glyph-name="j" unicode="j" horiz-adv-x="208" 
d="M45 706h119v-119h-119v119zM45 512h119v-560c0 -10 4 -82 -45 -112c-24 -16 -52 -17 -79 -17c-9 0 -26 0 -48 3v99c24 0 32 1 42 10c13 12 11 22 11 51v526z" />
    <glyph glyph-name="k" unicode="k" 
d="M44 706h118v-369l98 175h132l-131 -213l145 -299h-134l-110 261v-261h-118v706z" />
    <glyph glyph-name="l" unicode="l" horiz-adv-x="208" 
d="M44 706h120v-706h-120v706z" />
    <glyph glyph-name="m" unicode="m" horiz-adv-x="625" 
d="M45 512h119v-34c13 12 47 45 101 45c55 0 84 -37 96 -51c41 35 55 41 84 47c17 3 25 3 33 3c46 0 85 -25 98 -70c3 -13 4 -22 5 -46v-406h-119v379c0 20 0 39 -18 52c-5 3 -13 7 -25 7c-40 0 -46 -33 -48 -65v-373h-118v376c0 21 2 40 -16 55c-8 7 -17 9 -28 9
c-49 0 -46 -52 -46 -61v-379h-118v512z" />
    <glyph glyph-name="n" unicode="n" horiz-adv-x="417" 
d="M44 512h121l-1 -37c31 30 56 47 102 47c47 0 90 -24 103 -72c3 -14 3 -23 4 -50v-400h-118v377c-1 32 -2 45 -18 55c-4 3 -11 6 -23 6c-56 0 -51 -59 -51 -69v-369h-119v512z" />
    <glyph glyph-name="o" unicode="o" 
d="M358 379v-247c-2 -36 -5 -62 -29 -90c-45 -54 -116 -52 -136 -52c-24 0 -42 3 -51 5c-20 4 -75 21 -95 81c-6 17 -8 33 -9 69v229c1 35 4 49 10 65c24 64 91 83 152 83c16 0 114 1 146 -75c8 -18 10 -34 12 -68zM240 126v260c-1 32 -3 46 -19 56c-8 6 -18 6 -22 6
c-13 0 -20 -4 -24 -7c-19 -14 -17 -35 -18 -56v-260c1 -9 -1 -53 41 -53c45 0 42 46 42 54z" />
    <glyph glyph-name="p" unicode="p" horiz-adv-x="417" 
d="M44 512h119v-39c12 10 52 50 107 49c14 0 57 -4 85 -41c21 -29 21 -62 24 -94v-272c-1 -9 -1 -46 -17 -76c-6 -11 -13 -19 -22 -27c-11 -9 -32 -22 -66 -22c-49 0 -77 23 -111 53v-220h-119v689zM259 140v237c-2 29 -7 40 -21 49c-4 2 -13 7 -26 7c-9 0 -19 -2 -27 -7
c-20 -12 -22 -31 -22 -52v-230c0 -4 -1 -17 4 -29c10 -26 37 -28 45 -28c25 0 38 14 42 24c5 11 5 27 5 29z" />
    <glyph glyph-name="q" unicode="q" horiz-adv-x="417" 
d="M255 512h118v-689h-118v220c-8 -7 -16 -15 -25 -22c-26 -22 -50 -32 -85 -32c-69 1 -92 50 -100 73c-6 21 -7 44 -7 50v279c1 19 2 38 8 56c16 48 60 76 110 75c54 0 86 -33 99 -46v36zM254 149v236c0 3 0 13 -3 21c-7 20 -26 30 -46 30c-11 0 -19 -4 -23 -5
c-21 -10 -25 -25 -25 -46v-243c1 -13 0 -54 47 -54c53 0 49 49 50 61z" />
    <glyph glyph-name="r" unicode="r" horiz-adv-x="292" 
d="M44 512h119l-1 -65c3 5 9 17 18 30c34 44 78 45 99 44l-1 -118c-9 4 -19 8 -39 8c-7 0 -27 0 -45 -12c-33 -23 -32 -63 -32 -97v-302h-118v512z" />
    <glyph glyph-name="s" unicode="s" horiz-adv-x="375" 
d="M27 180h110v-40c1 -17 1 -23 3 -32c2 -12 12 -33 43 -33c4 0 17 0 27 7c10 6 20 22 20 49c0 37 -6 45 -35 66l-100 71c-46 37 -61 64 -61 123c1 102 63 131 155 131c75 0 116 -26 132 -55c12 -20 13 -41 14 -62v-57h-103v37c0 8 2 56 -44 56c-5 0 -12 0 -22 -5
c-15 -9 -19 -25 -19 -41c0 -30 12 -38 34 -56l110 -77c9 -9 22 -20 31 -31c12 -17 19 -40 19 -83c0 -39 0 -79 -27 -112c-22 -27 -58 -46 -131 -46c-57 0 -120 11 -145 71c-11 26 -11 57 -11 66v53z" />
    <glyph glyph-name="t" unicode="t" horiz-adv-x="271" 
d="M71 698h118v-186h71v-79h-71v-292c0 -16 0 -20 3 -28c7 -24 30 -28 51 -28c7 0 13 1 20 2v-86c-13 -3 -30 -6 -61 -6c-69 0 -105 15 -120 48c-9 18 -9 39 -10 59v331h-65v79h64v186z" />
    <glyph glyph-name="u" unicode="u" horiz-adv-x="417" 
d="M44 512h120v-368c-1 -18 -2 -36 11 -49c9 -9 20 -13 32 -13c4 0 19 1 30 10c20 17 16 55 16 58v362h120v-512h-120v42c-13 -12 -52 -51 -109 -51c-10 0 -36 2 -60 18c-41 29 -40 74 -40 117v386z" />
    <glyph glyph-name="v" unicode="v" horiz-adv-x="354" 
d="M1 512h119l53 -355l61 355h119l-123 -512h-116z" />
    <glyph glyph-name="w" unicode="w" horiz-adv-x="562" 
d="M4 512h116l54 -338l60 338h97l54 -338l58 338h116l-116 -512h-112l-50 304l-60 -304h-113z" />
    <glyph glyph-name="x" unicode="x" horiz-adv-x="375" 
d="M25 512h123l44 -171l46 171h115l-92 -234l110 -278h-128l-58 207l-58 -207h-123l111 278z" />
    <glyph glyph-name="y" unicode="y" horiz-adv-x="354" 
d="M1 512h118l66 -329l51 329h117l-117 -549c-12 -53 -22 -82 -39 -103c-19 -23 -45 -37 -104 -37c-30 0 -47 4 -77 9l18 94c8 -2 23 -7 45 -7c41 0 47 36 54 67l1 14z" />
    <glyph glyph-name="z" unicode="z" horiz-adv-x="354" 
d="M43 512h282v-96l-177 -316h185v-100h-309v100l179 316h-160v96z" />
    <glyph glyph-name="braceleft" unicode="{" horiz-adv-x="354" 
d="M140 414v168c2 48 5 95 47 131c23 20 45 26 54 28c20 4 64 6 85 7l-1 -6c-28 -7 -51 -14 -72 -38c-26 -28 -27 -63 -28 -129v-98c0 -37 1 -73 -2 -110c0 -11 -1 -60 -36 -93c-11 -11 -22 -16 -48 -25c26 -10 44 -17 62 -41c22 -31 24 -56 25 -120v-166
c1 -65 3 -98 27 -126c21 -25 45 -33 73 -40l-1 -6c-77 2 -117 9 -148 42c-39 42 -37 107 -37 153v129c0 70 0 104 -21 136c-14 22 -28 28 -50 37v6c23 7 37 12 51 34c18 29 19 64 20 127z" />
    <glyph glyph-name="bar" unicode="|" horiz-adv-x="229" 
d="M155 -250h-81v998h81v-998z" />
    <glyph glyph-name="braceright" unicode="}" horiz-adv-x="354" 
d="M215 83v-125c-1 -28 -1 -56 -4 -84c-3 -20 -10 -77 -69 -107c-30 -14 -53 -14 -113 -17v6c26 6 49 12 70 35c27 28 29 64 30 132v98c0 34 0 68 1 103c1 9 1 67 39 101c13 12 29 18 46 24c-1 0 -18 6 -30 12c-37 21 -47 57 -50 67c-7 28 -7 72 -7 137v110
c0 57 -3 88 -18 114c-23 40 -71 50 -81 53v6c85 -3 126 -13 156 -52c24 -33 29 -69 29 -144v-129c0 -74 1 -111 26 -142c14 -18 26 -23 45 -30v-6c-13 -4 -15 -5 -22 -8c-8 -4 -20 -11 -31 -30c-16 -28 -17 -63 -17 -124z" />
    <glyph glyph-name="asciitilde" unicode="~" horiz-adv-x="729" 
d="M369 246l-30 15c-5 2 -47 24 -81 24c-46 0 -69 -36 -94 -67l-40 72c13 17 54 84 133 84c40 -1 76 -18 111 -34l33 -15c22 -10 45 -21 70 -21c51 0 91 57 96 62l38 -72c-9 -11 -19 -24 -44 -43c-12 -10 -46 -36 -93 -36c-29 1 -50 8 -99 31z" />
    <glyph glyph-name="exclamdown" unicode="&#xa1;" horiz-adv-x="229" 
d="M151 0h-113v313l19 203h78l16 -197v-319zM154 574h-119v132h119v-132z" />
    <glyph glyph-name="sterling" unicode="&#xa3;" horiz-adv-x="479" 
d="M250 339h106v-61h-84c3 -11 9 -26 9 -52c-1 -56 -23 -102 -30 -119c4 -3 8 -5 12 -8c13 -7 36 -17 51 -17c4 0 13 1 21 6c17 13 18 37 20 56l1 53h101v-75c0 -4 -1 -33 -6 -53c-8 -28 -31 -81 -108 -81c-8 0 -24 1 -43 7c-17 5 -53 19 -90 44c-11 -11 -45 -51 -100 -51
c-6 0 -21 1 -37 7c-17 7 -51 28 -51 77c0 50 39 85 88 85c31 0 69 -17 75 -19c3 7 9 17 9 36c0 22 -12 58 -37 104h-111v61h86l-18 42c-9 21 -33 78 -33 146c0 74 26 112 51 134c21 19 59 42 124 42c42 0 89 -10 122 -37c20 -16 33 -37 42 -61c9 -26 10 -48 12 -75v-49h-115
v41c0 8 -1 15 -1 23c-1 14 -4 62 -56 62c-6 0 -22 0 -36 -12c-17 -14 -25 -35 -25 -77c0 -68 26 -119 51 -179zM149 74c-17 14 -36 20 -44 20c-15 0 -26 -12 -26 -25c1 -15 13 -25 27 -25c20 1 31 17 43 30z" />
    <glyph glyph-name="fraction" unicode="&#x2044;" horiz-adv-x="125" 
d="M166 732l59 -20l-266 -739l-58 19z" />
    <glyph glyph-name="section" unicode="&#xa7;" horiz-adv-x="437" 
d="M393 512h-113v45c-1 18 0 22 -2 33c-7 40 -43 40 -54 40c-48 0 -48 -41 -48 -55c0 -30 9 -41 31 -61l21 -21l12 -9l120 -103c16 -14 62 -53 61 -120c0 -19 -3 -39 -9 -57c-15 -39 -43 -66 -69 -95c32 -34 46 -50 46 -133c0 -31 -4 -61 -22 -89c-21 -33 -49 -46 -85 -55
c-24 -5 -41 -7 -65 -7c-12 0 -84 -1 -130 37c-20 16 -29 34 -33 43c-5 14 -8 29 -8 59v85h115v-52c0 -19 -2 -41 8 -59c13 -21 41 -21 46 -21c32 0 45 17 49 29c3 9 2 19 2 22c0 35 1 42 -9 60c-10 16 -20 22 -45 44l-126 108c-6 4 -11 9 -17 14c-16 16 -38 44 -46 66
c-4 10 -9 26 -9 51s6 41 10 51c14 35 46 69 71 95c-29 33 -38 52 -38 95c0 13 0 26 1 39c1 18 6 70 54 102c41 26 109 25 117 25c90 0 135 -29 154 -69c10 -23 10 -44 10 -67v-70zM283 170c1 2 33 35 33 65c0 9 -3 23 -17 41c-15 19 -54 50 -103 90c-14 11 -28 23 -43 35
c-13 -19 -32 -42 -32 -68c0 -31 34 -57 53 -75c35 -30 71 -60 109 -88z" />
    <glyph glyph-name="currency" unicode="&#xa4;" horiz-adv-x="667" 
d="M548 183l77 -76l-62 -60l-76 76c-33 -21 -71 -50 -153 -50c-84 0 -122 29 -156 51l-76 -76l-60 61l77 75c-23 35 -52 73 -52 156c0 19 2 70 30 121c5 11 13 22 21 33l-75 76l60 60l75 -75c8 5 15 10 23 15c27 16 70 36 134 36c80 0 119 -29 154 -51l75 75l61 -60l-76 -76
c23 -35 50 -72 50 -152c0 -16 -1 -32 -3 -48c-7 -46 -22 -71 -48 -111zM519 340c0 20 0 66 -37 114c-19 25 -67 74 -147 73c-14 0 -42 -1 -77 -15c-73 -31 -111 -100 -111 -171c0 -17 3 -69 36 -115c20 -27 71 -74 150 -74c20 0 78 3 126 47c26 24 60 68 60 141z" />
    <glyph glyph-name="quotesingle" unicode="'" horiz-adv-x="208" 
d="M115 434h-23l-39 245c-1 11 -2 22 1 32c3 14 19 38 53 38c9 0 20 -3 28 -8c21 -13 21 -29 21 -50z" />
    <glyph glyph-name="quotedblleft" unicode="&#x201c;" horiz-adv-x="375" 
d="M336 440h-120v130l80 136h47l-68 -136h61v-130zM152 440h-118v130l83 136h46l-73 -136h62v-130z" />
    <glyph glyph-name="guillemotleft" unicode="&#xab;" horiz-adv-x="313" 
d="M278 127l-102 94v94l102 94v-97l-43 -45l43 -42v-98zM133 127l-102 93v92l102 97v-97l-39 -45l39 -40v-100z" />
    <glyph glyph-name="fi" unicode="&#xfb01;" horiz-adv-x="458" 
d="M183 512h53v-79h-54v-433h-118v433h-53v79h53v90l3 24c5 32 20 48 30 57c28 24 63 25 99 25c15 0 30 -1 44 -2v-98c-17 2 -28 3 -35 1c-22 -5 -22 -29 -22 -34v-63zM294 706h120v-120h-120v120zM294 512h120v-512h-120v512z" />
    <glyph glyph-name="fl" unicode="&#xfb02;" horiz-adv-x="458" 
d="M183 512h53v-79h-54v-433h-118v433h-53v79h53v90l3 24c5 32 20 48 30 57c28 24 63 25 99 25c15 0 30 -1 44 -2v-98c-17 2 -28 3 -35 1c-22 -5 -22 -29 -22 -34v-63zM294 706h120v-706h-120v706z" />
    <glyph glyph-name="endash" unicode="&#x2013;" 
d="M28 316h340v-99h-340v99z" />
    <glyph glyph-name="dagger" unicode="&#x2020;" horiz-adv-x="437" 
d="M23 536h136v170h119v-170h139v-113h-139v-423h-119v423h-136v113z" />
    <glyph glyph-name="periodcentered" unicode="&#xb7;" horiz-adv-x="187" 
d="M161 286c-2 -37 -30 -64 -67 -63c-14 0 -26 4 -31 6c-22 12 -36 38 -36 60c0 37 29 70 68 70s68 -34 66 -73z" />
    <glyph glyph-name="paragraph" unicode="&#xb6;" horiz-adv-x="667" 
d="M539 706v-54h-34v-819h-58v819h-144v-819h-58v486c-39 8 -68 15 -101 46c-7 6 -20 19 -31 38c-10 17 -26 54 -26 103c0 17 2 66 32 113c11 17 40 54 92 73c26 10 48 13 98 14h230z" />
    <glyph glyph-name="bullet" unicode="&#x2022;" horiz-adv-x="333" 
d="M297 353c0 -75 -54 -130 -129 -130c-10 0 -30 1 -54 11c-51 22 -77 71 -77 119c0 7 1 28 9 48c12 29 49 82 123 82c8 0 25 -1 45 -8c76 -28 83 -100 83 -122z" />
    <glyph glyph-name="quotesinglbase" unicode="&#x201a;" horiz-adv-x="187" 
d="M36 129h117v-129l-83 -135h-44l68 135h-58v129z" />
    <glyph glyph-name="quotedblbase" unicode="&#x201e;" horiz-adv-x="375" 
d="M38 130h117v-130l-69 -137h-43l58 137h-63v130zM219 130h118v-130l-73 -137h-45l64 137h-64v130z" />
    <glyph glyph-name="quotedblright" unicode="&#x201d;" horiz-adv-x="375" 
d="M36 706h121v-130l-80 -136h-47l68 136h-62v130zM221 706h118v-130l-84 -136h-46l74 136h-62v130z" />
    <glyph glyph-name="guillemotright" unicode="&#xbb;" horiz-adv-x="313" 
d="M34 409l103 -94v-94l-103 -94v97l43 45l-43 42v98zM179 409l102 -93v-92l-102 -97v97l40 45l-40 40v100z" />
    <glyph glyph-name="ellipsis" unicode="&#x2026;" horiz-adv-x="1000" 
d="M890 51c0 -31 -24 -57 -56 -57c-33 0 -57 26 -57 57c0 33 28 56 57 56c32 0 56 -24 56 -56zM557 51c0 -4 -1 -14 -5 -25c-10 -20 -30 -32 -51 -32c-32 0 -57 24 -57 57c0 32 26 56 58 56c30 0 54 -24 55 -56zM223 51c0 -9 -3 -37 -29 -50c-8 -4 -18 -7 -27 -7
c-33 0 -57 26 -57 57c0 33 26 56 59 56c30 0 55 -25 54 -56z" />
    <glyph glyph-name="questiondown" unicode="&#xbf;" horiz-adv-x="417" 
d="M351 243v-74c0 -46 0 -102 -35 -138c-32 -33 -89 -40 -131 -40c-60 0 -93 15 -115 31c-13 9 -24 22 -30 36c-8 18 -12 44 -12 87c0 19 1 38 2 56c0 19 1 25 3 35c6 29 19 45 35 70l51 73c28 39 37 57 41 81c2 11 2 23 2 34v22h113v-34c1 -52 -7 -70 -35 -113l-65 -103
c-4 -5 -7 -11 -11 -16c-6 -10 -18 -27 -18 -56v-61c0 -4 1 -8 1 -12c1 -16 4 -34 20 -44c5 -3 11 -5 24 -5c49 1 48 37 49 54v117h111zM275 576h-117v130h117v-130z" />
    <glyph glyph-name="grave" unicode="`" horiz-adv-x="250" 
d="M-103 706h153l67 -132h-87z" />
    <glyph glyph-name="acute" unicode="&#xb4;" horiz-adv-x="250" 
d="M54 725h156c-23 -24 -46 -47 -67 -70c-21 -21 -40 -43 -60 -64l-94 -1z" />
    <glyph glyph-name="circumflex" unicode="&#x2c6;" horiz-adv-x="250" 
d="M-14 706h129l86 -132h-105l-44 73l-48 -73h-104z" />
    <glyph glyph-name="tilde" unicode="&#x2dc;" horiz-adv-x="250" 
d="M157 698l64 -1c-1 -40 -2 -89 -39 -113c-6 -4 -24 -14 -46 -14c-26 1 -67 18 -89 28c-15 7 -32 17 -49 17c-33 -1 -41 -33 -44 -41h-65c2 40 6 77 39 105c17 15 36 21 59 21c21 0 44 -6 84 -25c25 -11 41 -19 54 -19c3 0 7 1 13 4c11 6 15 15 19 38z" />
    <glyph glyph-name="dieresis" unicode="&#xa8;" horiz-adv-x="250" 
d="M-100 726h118v-125h-120zM82 726h120v-124h-120v124z" />
    <glyph glyph-name="cedilla" unicode="&#xb8;" horiz-adv-x="250" 
d="M23 26h44v-79c7 0 63 4 91 -28c5 -5 14 -19 14 -40c0 -11 -4 -37 -29 -54c-28 -18 -83 -18 -86 -18c-23 0 -55 4 -59 4c-8 2 -17 4 -25 6v30c15 -2 48 -4 63 0c18 6 23 20 23 27c-1 27 -33 29 -36 29v123z" />
    <glyph glyph-name="caron" unicode="&#x2c7;" horiz-adv-x="250" 
d="M-100 706h105l45 -73l48 73h104l-85 -132h-132z" />
    <glyph glyph-name="emdash" unicode="&#x2014;" horiz-adv-x="500" 
d="M500 252h-500v81h500v-81z" />
    <glyph glyph-name="AE" unicode="&#xc6;" horiz-adv-x="708" 
d="M265 706h420v-109h-225v-163h212v-106h-212v-219h226v-109h-356v146h-138l-49 -146h-140zM228 253h102v300z" />
    <glyph glyph-name="Oslash" unicode="&#xd8;" horiz-adv-x="479" 
d="M390 721l57 -28l-33 -65c11 -18 17 -32 20 -72v-403c-1 -20 -2 -40 -8 -60c-15 -46 -65 -108 -179 -108c-73 0 -109 24 -135 43l-20 -39l-59 31l33 62c-10 17 -18 36 -20 76v395c1 43 5 71 33 104c54 63 132 64 157 64c68 0 111 -22 134 -38zM178 304l125 241v22
c-1 10 -2 18 -7 28c-7 11 -23 24 -52 24c-5 0 -25 -1 -41 -11c-26 -17 -24 -51 -25 -76v-228zM178 161v-16c1 -15 3 -21 7 -28c6 -14 21 -28 54 -28c5 0 26 0 42 12c22 17 22 44 22 69v232z" />
    <glyph glyph-name="OE" unicode="&#x152;" horiz-adv-x="688" 
d="M359 706h297v-109h-223v-165h211v-104h-211v-217h231v-111h-305l-1 31c-11 -10 -17 -15 -31 -22c-20 -12 -53 -24 -107 -24c-22 0 -136 2 -167 100c-6 20 -7 34 -9 73v366c0 13 0 26 1 39c3 61 23 109 80 137c30 15 64 21 96 21c17 0 67 -1 111 -31c13 -9 23 -20 27 -24
v40zM175 530v-366c0 -16 1 -23 3 -31c5 -15 20 -44 61 -44c15 1 28 4 39 12c25 19 24 44 24 70v360c-1 36 -1 49 -12 66c-8 12 -21 23 -52 23c-32 0 -44 -13 -51 -25c-10 -16 -12 -30 -12 -65z" />
    <glyph glyph-name="ae" unicode="&#xe6;" horiz-adv-x="604" 
d="M570 383v-154h-212v-91c0 -1 -1 -17 1 -26c4 -13 15 -30 45 -30c14 0 30 4 38 17c8 11 7 26 8 38v33h119v-47c-5 -45 -13 -80 -52 -107c-21 -13 -53 -27 -108 -27c-54 0 -80 13 -124 41c-20 -12 -64 -40 -128 -40c-13 0 -101 0 -120 73c-6 25 -6 69 -6 94
c0 28 1 58 17 82c21 31 73 52 77 54l114 47v43c-1 16 -3 30 -17 39c-8 6 -18 8 -27 8c-45 0 -45 -37 -46 -50v-31h-107v56c1 13 0 51 29 80c28 28 73 37 110 37c27 0 60 -5 85 -14c8 -3 18 -6 35 -15c8 4 15 8 22 12c25 11 69 17 95 17c23 0 112 -6 142 -87
c8 -22 9 -45 10 -52zM358 309h91v64c1 19 0 36 -17 48c-8 5 -18 8 -28 8c-8 -1 -33 -2 -42 -25c-3 -8 -4 -13 -4 -28v-67zM238 108v143c-16 -7 -33 -14 -48 -22c-51 -29 -46 -67 -46 -91c0 -8 -1 -57 43 -57c29 0 46 21 51 27z" />
    <glyph glyph-name="dotlessi" unicode="&#x131;" horiz-adv-x="208" 
d="M44 512h120v-512h-120v512z" />
    <glyph glyph-name="oslash" unicode="&#xf8;" 
d="M338 527l41 -26l-36 -52c1 -2 3 -4 4 -7c7 -13 9 -35 10 -67v-243c0 -19 0 -64 -39 -102c-33 -33 -71 -40 -116 -40c-56 0 -80 9 -125 42l-28 -41l-40 25l36 57c-7 18 -7 26 -6 59v247c0 18 -2 71 42 107c33 28 76 36 117 36c60 0 93 -20 115 -33zM147 232l101 156l-1 10
c-1 8 0 6 -2 11c-3 12 -14 31 -45 31c-6 0 -18 0 -30 -8c-20 -13 -21 -32 -23 -53v-147zM146 141v-14c1 -17 3 -31 19 -41c5 -4 14 -8 30 -8c28 0 41 14 46 25c6 12 5 29 5 31v165z" />
    <glyph glyph-name="oe" unicode="&#x153;" horiz-adv-x="604" 
d="M451 172h115v-42c0 -4 0 -36 -6 -58c-25 -87 -124 -83 -143 -83c-63 0 -94 19 -118 34c-21 -13 -54 -33 -113 -33c-60 0 -117 26 -139 87c-5 16 -8 33 -9 67v219c1 32 3 49 8 64c20 64 84 95 147 95c29 0 58 -3 107 -38c17 10 61 38 120 38c57 0 114 -28 136 -84
c7 -16 9 -32 10 -65v-143h-203v-94c1 -19 1 -36 18 -47c4 -3 14 -8 28 -8c11 0 20 4 23 6c21 14 18 43 18 48zM362 310h87v68c0 20 -1 38 -20 49c-3 3 -11 7 -23 7c-3 0 -13 -1 -22 -6c-20 -11 -21 -28 -22 -49v-69zM244 130v248c-1 28 -5 39 -17 47c-10 7 -20 7 -24 7
c-9 0 -18 -2 -24 -6c-23 -15 -20 -42 -20 -48v-251c0 -3 -1 -11 2 -20c7 -26 29 -29 38 -29c5 0 13 1 23 6c14 8 20 17 22 46z" />
    <glyph glyph-name="germandbls" unicode="&#xdf;" horiz-adv-x="417" 
d="M44 0v589c0 32 1 60 23 86c21 27 59 46 132 46c15 0 29 0 43 -2c16 -2 83 -9 108 -66c8 -20 10 -40 10 -60v-65c-3 -66 -2 -82 -71 -95c35 -6 75 -11 87 -52c3 -11 5 -38 5 -70v-195c0 -7 1 -31 -6 -53c-16 -54 -65 -72 -117 -72c-24 0 -44 4 -68 9l1 69
c10 -1 20 -2 30 -2c48 3 42 50 42 60v183c-1 28 -1 40 -12 52c-12 14 -30 14 -47 16h-18v81h14c17 0 22 0 30 3c24 8 23 33 24 52v73c-1 15 0 49 -45 49c-2 0 -34 1 -42 -19c-4 -8 -4 -17 -4 -26v-591h-119z" />
    <glyph glyph-name="Grave" unicode="&#xf6ce;" horiz-adv-x="250" 
d="M-103 895h153l67 -133h-87z" />
    <glyph glyph-name="Acute" unicode="&#xf6c9;" horiz-adv-x="250" 
d="M53 897h156l-127 -134h-93z" />
    <glyph glyph-name="Circumflex" horiz-adv-x="250" 
d="M-14 895h129l86 -133h-105l-44 73l-48 -73h-104z" />
    <glyph glyph-name="Tilde" horiz-adv-x="250" 
d="M157 886h64c-1 -40 -2 -90 -39 -114c-6 -4 -24 -13 -46 -13c-26 0 -67 17 -89 27c-15 8 -32 17 -49 17c-33 0 -41 -33 -44 -41l-65 1c2 40 6 76 39 104c17 15 36 21 59 21c21 0 44 -6 84 -24c25 -12 41 -19 54 -19c3 0 7 0 13 3c11 6 15 16 19 38z" />
    <glyph glyph-name="Dieresis" unicode="&#xf6cb;" horiz-adv-x="250" 
d="M-104 883h116v-121h-116v121zM97 883h116v-121h-116v121z" />
    <glyph glyph-name="Caron" unicode="&#xf6ca;" horiz-adv-x="250" 
d="M-100 895h105l45 -74l48 74h104l-85 -133h-132z" />
    <glyph glyph-name="Adieresis" unicode="&#xc4;" horiz-adv-x="437" 
d="M69 883h117v-121h-117v121zM270 883h116v-121h-116v121zM147 706h149l132 -706h-132l-17 115h-120l-19 -115h-130zM175 224h90l-43 303z" />
    <glyph glyph-name="Aring" unicode="&#xc5;" horiz-adv-x="437" 
d="M226 919c50 0 89 -41 89 -90s-40 -89 -89 -89s-89 41 -89 90s40 89 89 89zM225 869c-22 0 -41 -18 -41 -41s19 -41 42 -41c22 0 41 19 41 41c-1 23 -19 41 -42 41zM147 706h149l132 -706h-132l-17 115h-120l-19 -115h-130zM175 224h90l-43 303z" />
    <glyph glyph-name="Odieresis" unicode="&#xd6;" horiz-adv-x="479" 
d="M83 883h117v-121h-117v121zM285 883h116v-121h-116v121zM44 151v396c0 15 -3 86 44 128c26 23 75 46 154 46c102 0 156 -42 177 -83c11 -23 15 -45 16 -94v-393c-1 -45 -7 -86 -41 -119c-42 -39 -99 -47 -153 -47c-52 0 -105 7 -147 41c-21 17 -31 34 -35 44
c-12 25 -14 55 -15 81zM175 530v-357c0 -21 0 -47 12 -65c16 -21 47 -21 53 -21s25 0 41 12c24 16 23 45 23 71v365c0 4 3 36 -8 57c-6 13 -21 31 -54 31c-7 0 -26 -1 -42 -13c-29 -20 -24 -51 -25 -80z" />
    <glyph glyph-name="Udieresis" unicode="&#xdc;" horiz-adv-x="479" 
d="M84 883h117v-121h-117v121zM286 883h116v-121h-116v121zM49 706h130v-525c1 -18 0 -46 10 -63c7 -11 23 -22 53 -22c5 0 22 0 37 11c24 17 21 49 21 75v524h131v-547c-2 -42 -4 -77 -32 -113c-50 -65 -146 -61 -163 -61c-52 0 -106 11 -144 51c-7 7 -21 24 -30 48
c-10 25 -12 53 -13 78v544z" />
    <glyph glyph-name="adieresis" unicode="&#xe4;" 
d="M45 715h117v-120h-117v120zM247 715h116v-120h-116v120zM42 354v58c1 12 2 47 29 73c21 21 63 38 129 38c15 0 104 1 140 -64c12 -21 12 -40 12 -49v-285c0 -28 -3 -91 15 -116c1 -3 3 -5 8 -9h-125c-10 11 -12 20 -14 45c-6 -6 -11 -13 -18 -19c-13 -13 -38 -37 -85 -37
c-10 0 -38 1 -62 19c-42 31 -39 92 -39 137c0 37 -2 75 24 105c14 17 35 27 54 38l124 62v30c1 30 -3 45 -16 54c-5 3 -13 7 -26 7c-5 0 -28 0 -37 -20c-4 -9 -4 -26 -4 -48v-19h-109zM233 258l-58 -38c-4 -3 -9 -7 -10 -8c-15 -14 -17 -34 -17 -74c0 -38 5 -59 29 -59
c17 1 29 9 43 18l13 11v150z" />
    <glyph glyph-name="aring" unicode="&#xe5;" 
d="M203 751c50 0 89 -40 89 -90c0 -48 -40 -88 -90 -89c-49 1 -89 41 -89 90s40 89 90 89zM202 701c-22 0 -41 -18 -41 -41c0 -22 19 -41 42 -41c22 0 40 19 40 41c0 24 -19 41 -41 41zM42 354v58c1 12 2 47 29 73c21 21 63 38 129 38c15 0 104 1 140 -64
c12 -21 12 -40 12 -49v-285c0 -28 -3 -91 15 -116c1 -3 3 -5 8 -9h-125c-10 11 -12 20 -14 45c-6 -6 -11 -13 -18 -19c-13 -13 -38 -37 -85 -37c-10 0 -38 1 -62 19c-42 31 -39 92 -39 137c0 37 -2 75 24 105c14 17 35 27 54 38l124 62v30c1 30 -3 45 -16 54
c-5 3 -13 7 -26 7c-5 0 -28 0 -37 -20c-4 -9 -4 -26 -4 -48v-19h-109zM233 258l-58 -38c-4 -3 -9 -7 -10 -8c-15 -14 -17 -34 -17 -74c0 -38 5 -59 29 -59c17 1 29 9 43 18l13 11v150z" />
    <glyph glyph-name="odieresis" unicode="&#xf6;" 
d="M42 715h117v-120h-117v120zM243 715h116v-120h-116v120zM358 379v-247c-2 -36 -5 -62 -29 -90c-45 -54 -116 -52 -136 -52c-24 0 -42 3 -51 5c-20 4 -75 21 -95 81c-6 17 -8 33 -9 69v229c1 35 4 49 10 65c24 64 91 83 152 83c16 0 114 1 146 -75c8 -18 10 -34 12 -68z
M240 126v260c-1 32 -3 46 -19 56c-8 6 -18 6 -22 6c-13 0 -20 -4 -24 -7c-19 -14 -17 -35 -18 -56v-260c1 -9 -1 -53 41 -53c45 0 42 46 42 54z" />
    <glyph glyph-name="udieresis" unicode="&#xfc;" horiz-adv-x="417" 
d="M52 715h117v-120h-117v120zM254 715h116v-120h-116v120zM44 512h120v-368c0 -5 -5 -62 42 -61c55 1 47 59 47 67v363h120v-513h-120l-1 47c-6 -6 -11 -12 -17 -18c-38 -34 -71 -38 -93 -38c-11 0 -38 1 -61 20c-38 30 -37 73 -37 115v386z" />
    <glyph glyph-name="degree" unicode="&#xb0;" horiz-adv-x="354" 
d="M177 755c90 0 161 -72 161 -161c0 -13 -1 -39 -15 -69c-26 -56 -84 -93 -146 -93c-90 1 -161 73 -161 162s72 161 161 161zM177 675c-44 0 -79 -36 -79 -79c0 -44 36 -79 79 -79c44 0 79 35 79 79c0 43 -35 79 -79 79z" />
    <glyph glyph-name="registered" unicode="&#xae;" horiz-adv-x="833" 
d="M595 131l-92 1c-18 39 -20 77 -26 118c-7 41 -14 58 -35 70c-19 11 -30 12 -68 13h-28v-202h-80v449h146c54 0 116 3 153 -45c8 -10 24 -35 24 -70c0 -22 -7 -70 -61 -96c-7 -3 -16 -7 -32 -11c14 -6 22 -10 27 -14c34 -26 36 -70 42 -107c9 -55 17 -82 30 -106zM346 396
h67c9 0 18 0 27 1c25 2 50 10 62 34c2 3 7 15 7 28c0 8 -3 37 -28 51c-13 6 -30 9 -60 9c-7 0 -15 -1 -23 -1h-52v-122zM773 351c0 -43 -9 -140 -85 -229c-94 -112 -221 -125 -271 -125c-79 0 -156 26 -218 73c-46 36 -138 126 -138 284c0 118 52 193 81 228
c37 43 125 127 276 127c113 0 217 -50 286 -143c47 -63 70 -137 69 -215zM741 352c0 35 -5 116 -63 195c-32 43 -114 130 -260 130c-34 0 -115 -5 -192 -62c-43 -31 -133 -115 -133 -262c0 -43 8 -84 24 -123c49 -122 169 -201 301 -201c20 0 60 2 109 19
c130 46 213 168 214 304z" />
    <glyph glyph-name="copyright" unicode="&#xa9;" horiz-adv-x="833" 
d="M613 502l-56 -53c-7 8 -14 15 -21 21c-18 17 -53 47 -111 47c-12 0 -42 -2 -73 -17c-35 -17 -87 -61 -87 -147c1 -33 9 -55 15 -68c15 -35 60 -92 146 -92c17 0 60 3 102 36c11 9 20 19 29 29l56 -49c-11 -12 -21 -24 -33 -34c-25 -22 -78 -57 -155 -57
c-18 0 -71 0 -125 32c-18 10 -30 19 -43 32c-67 65 -70 146 -70 172c0 16 1 60 24 108c22 48 88 130 213 130c24 0 89 -3 149 -51c15 -12 27 -26 40 -39zM773 351c-1 -97 -42 -202 -127 -272c-70 -58 -150 -82 -230 -82c-132 0 -221 71 -258 109c-38 40 -97 123 -97 248
c0 92 33 156 53 188c11 19 30 48 70 82c39 33 116 85 233 85c156 0 250 -90 287 -142c26 -36 69 -114 69 -216zM740 352c0 41 -9 179 -136 267c-34 24 -95 58 -186 58c-181 0 -325 -144 -325 -324c0 -31 4 -117 67 -199c38 -48 123 -125 257 -125c115 0 193 59 228 93
c89 86 95 199 95 230z" />
    <glyph glyph-name="trademark" unicode="&#x2122;" horiz-adv-x="687" 
d="M636 374h-57l2 206l3 67l-17 -56l-67 -217h-51l-68 217l-17 55l4 -66l3 -206h-57v332h79l83 -262l81 262h79v-332zM182 374h-59v283h-107v49h270v-49h-104v-283z" />
    <glyph glyph-name="plusminus" unicode="&#xb1;" horiz-adv-x="500" 
d="M291 162h-79v179h-181v80h181v179h79v-179h178v-80h-178v-179zM469 0h-438v79h438v-79z" />
    <glyph glyph-name="minus" unicode="&#x2212;" horiz-adv-x="500" 
d="M500 252h-500v81h500v-81z" />
    <glyph glyph-name="mu" unicode="&#xb5;" horiz-adv-x="562" 
d="M504 140l28 1c9 -22 14 -46 14 -69c0 -12 -2 -83 -68 -83c-39 0 -61 29 -68 39c-14 19 -18 35 -21 44c-48 -73 -111 -87 -146 -87c-40 0 -76 18 -102 48c-9 9 -10 12 -14 18c-2 -31 -7 -101 30 -178c8 -16 18 -30 27 -45s19 -30 19 -48c0 -24 -18 -42 -43 -42
c-11 0 -19 4 -23 6c-12 6 -22 14 -33 39c-17 36 -26 86 -26 172c0 19 0 100 11 170c-3 21 -7 42 -9 63c-9 69 -11 163 -11 177c0 30 2 52 6 64c3 6 15 36 44 35c9 0 21 -2 32 -19c8 -11 12 -25 12 -53c0 -25 -3 -51 -6 -77c-3 -32 -7 -63 -11 -95s-7 -64 -13 -95
c9 -22 14 -30 19 -39c19 -27 47 -45 81 -45c11 0 32 2 53 18c49 35 62 108 65 119c13 70 8 173 8 184c0 40 2 69 12 84c4 6 16 19 36 18c4 0 15 0 25 -7c20 -15 26 -43 26 -91c0 -21 -2 -127 -29 -209c-3 -10 -8 -25 -20 -48c14 -37 35 -51 54 -51c3 0 11 1 19 6
c24 13 24 49 24 54c0 7 -1 14 -2 22z" />
    <glyph glyph-name="brokenbar" unicode="&#xa6;" horiz-adv-x="229" 
d="M74 190h81v-381h-81v381zM74 308v381h81v-381h-81z" />
    <glyph glyph-name="multiply" unicode="&#xd7;" horiz-adv-x="500" 
d="M457 141l-56 -57l-150 151l-152 -151l-56 57l152 152l-152 150l56 55l152 -150l150 150l56 -55l-150 -150z" />
    <glyph glyph-name="logicalnot" unicode="&#xac;" horiz-adv-x="667" 
d="M587 253h-587v79h667v-332h-80v253z" />
    <glyph glyph-name="divide" unicode="&#xf7;" horiz-adv-x="500" 
d="M308 145c-1 -33 -26 -55 -58 -55s-56 27 -55 55c0 32 26 57 56 57c33 -1 57 -25 57 -57zM308 434c0 -17 -13 -55 -57 -55c-31 1 -56 24 -56 55c0 7 0 16 7 29c10 18 29 29 50 29c32 -1 56 -25 56 -58zM500 251h-500v79h500v-79z" />
    <glyph glyph-name="onefitted" unicode="&#xf6dc;" horiz-adv-x="333" 
d="M156 665h78v-665h-117v507c-5 -4 -10 -8 -16 -12c-13 -9 -43 -22 -84 -29v92c14 4 15 4 23 7c26 11 60 33 79 52c15 15 25 30 37 48z" />
    <glyph glyph-name="Ccedilla" unicode="&#xc7;" horiz-adv-x="458" 
d="M302 449v89c-1 9 -1 17 -2 25c-3 43 -24 58 -65 58c-18 0 -28 -4 -35 -8c-24 -15 -24 -44 -25 -69v-378c0 -16 0 -20 2 -29c5 -35 27 -51 62 -51c21 0 33 6 41 11c20 15 21 33 22 76v92h128v-100c-1 -28 -1 -58 -10 -84c-34 -98 -165 -96 -180 -96c-30 0 -58 5 -67 7
c-52 10 -98 33 -119 84c-10 26 -10 48 -10 74v384c1 12 1 25 2 37c2 45 14 80 50 109c29 23 68 41 146 41c45 0 93 -6 132 -32c19 -13 35 -31 44 -52c11 -23 12 -37 12 -80v-108h-128zM200 26h44v-79c7 0 63 4 91 -28c5 -5 14 -19 15 -40c-1 -11 -5 -37 -30 -54
c-28 -18 -83 -18 -86 -18c-23 0 -54 4 -59 4c-8 2 -17 4 -25 6v30c15 -2 48 -4 63 0c18 6 23 20 23 27c-1 27 -33 29 -36 29v123z" />
    <glyph glyph-name="Eacute" unicode="&#xc9;" horiz-adv-x="417" 
d="M50 706h342v-107h-212v-166h200v-107h-200v-217h222v-109h-352v706zM210 897h155l-127 -134h-92z" />
    <glyph glyph-name="Ntilde" unicode="&#xd1;" horiz-adv-x="500" 
d="M450 0h-164l-125 529l11 -529h-122v706h167l127 -518l-13 518h119v-706zM355 886h64c-1 -40 -2 -90 -39 -114c-7 -4 -24 -13 -46 -13c-26 0 -67 17 -89 27c-15 8 -32 17 -49 17c-34 0 -42 -33 -44 -41l-65 1c2 40 6 76 39 104c17 15 35 21 59 21c21 0 44 -6 84 -24
c25 -12 41 -19 54 -19c3 0 7 0 13 3c11 6 15 16 19 38z" />
    <glyph glyph-name="aacute" unicode="&#xe1;" 
d="M42 354v58c1 12 2 47 29 73c21 21 63 38 129 38c15 0 104 1 140 -64c12 -21 12 -40 12 -49v-285c0 -28 -3 -91 15 -116c1 -3 3 -5 8 -9h-125c-10 11 -12 20 -14 45c-6 -6 -11 -13 -18 -19c-13 -13 -38 -37 -85 -37c-10 0 -38 1 -62 19c-42 31 -39 92 -39 137
c0 37 -2 75 24 105c14 17 35 27 54 38l124 62v30c1 30 -3 45 -16 54c-5 3 -13 7 -26 7c-5 0 -28 0 -37 -20c-4 -9 -4 -26 -4 -48v-19h-109zM233 258l-58 -38c-4 -3 -9 -7 -10 -8c-15 -14 -17 -34 -17 -74c0 -38 5 -59 29 -59c17 1 29 9 43 18l13 11v150zM200 725h156
c-23 -24 -46 -47 -67 -70c-21 -21 -41 -43 -60 -64l-94 -1z" />
    <glyph glyph-name="agrave" unicode="&#xe0;" 
d="M42 354v58c1 12 2 47 29 73c21 21 63 38 129 38c15 0 104 1 140 -64c12 -21 12 -40 12 -49v-285c0 -28 -3 -91 15 -116c1 -3 3 -5 8 -9h-125c-10 11 -12 20 -14 45c-6 -6 -11 -13 -18 -19c-13 -13 -38 -37 -85 -37c-10 0 -38 1 -62 19c-42 31 -39 92 -39 137
c0 37 -2 75 24 105c14 17 35 27 54 38l124 62v30c1 30 -3 45 -16 54c-5 3 -13 7 -26 7c-5 0 -28 0 -37 -20c-4 -9 -4 -26 -4 -48v-19h-109zM233 258l-58 -38c-4 -3 -9 -7 -10 -8c-15 -14 -17 -34 -17 -74c0 -38 5 -59 29 -59c17 1 29 9 43 18l13 11v150zM43 706h153l66 -132
h-86z" />
    <glyph glyph-name="acircumflex" unicode="&#xe2;" 
d="M42 354v58c1 12 2 47 29 73c21 21 63 38 129 38c15 0 104 1 140 -64c12 -21 12 -40 12 -49v-285c0 -28 -3 -91 15 -116c1 -3 3 -5 8 -9h-125c-10 11 -12 20 -14 45c-6 -6 -11 -13 -18 -19c-13 -13 -38 -37 -85 -37c-10 0 -38 1 -62 19c-42 31 -39 92 -39 137
c0 37 -2 75 24 105c14 17 35 27 54 38l124 62v30c1 30 -3 45 -16 54c-5 3 -13 7 -26 7c-5 0 -28 0 -37 -20c-4 -9 -4 -26 -4 -48v-19h-109zM233 258l-58 -38c-4 -3 -9 -7 -10 -8c-15 -14 -17 -34 -17 -74c0 -38 5 -59 29 -59c17 1 29 9 43 18l13 11v150zM132 706h129
l86 -132h-105l-44 73l-48 -73h-104z" />
    <glyph glyph-name="atilde" unicode="&#xe3;" 
d="M42 354v58c1 12 2 47 29 73c21 21 63 38 129 38c15 0 104 1 140 -64c12 -21 12 -40 12 -49v-285c0 -28 -3 -91 15 -116c1 -3 3 -5 8 -9h-125c-10 11 -12 20 -14 45c-6 -6 -11 -13 -18 -19c-13 -13 -38 -37 -85 -37c-10 0 -38 1 -62 19c-42 31 -39 92 -39 137
c0 37 -2 75 24 105c14 17 35 27 54 38l124 62v30c1 30 -3 45 -16 54c-5 3 -13 7 -26 7c-5 0 -28 0 -37 -20c-4 -9 -4 -26 -4 -48v-19h-109zM233 258l-58 -38c-4 -3 -9 -7 -10 -8c-15 -14 -17 -34 -17 -74c0 -38 5 -59 29 -59c17 1 29 9 43 18l13 11v150zM303 698l64 -1
c-1 -40 -2 -89 -40 -113c-6 -4 -23 -14 -45 -14c-26 1 -67 18 -89 28c-15 7 -32 17 -49 17c-34 -1 -42 -33 -44 -41h-65c2 40 6 77 38 105c18 15 36 21 60 21c20 0 44 -6 84 -25c25 -11 40 -19 54 -19c3 0 7 1 13 4c11 6 15 15 19 38z" />
    <glyph glyph-name="ccedilla" unicode="&#xe7;" 
d="M250 318v62c0 13 -1 19 -2 25c-3 11 -14 33 -43 32c-14 0 -23 -4 -28 -7c-16 -11 -20 -27 -21 -62v-223c0 -18 0 -26 3 -35c6 -21 23 -32 44 -32c3 0 16 1 26 7c19 13 20 39 20 59v59h118v-58c0 -16 2 -64 -29 -103c-43 -54 -116 -52 -133 -52c-74 0 -113 23 -136 48
c-3 4 -15 19 -21 36c-9 21 -9 42 -10 65v227c2 37 4 68 28 98c43 57 123 58 139 58c12 0 119 0 152 -77c6 -15 9 -32 10 -66v-61h-117zM169 26h43l1 -79c7 0 62 4 91 -28c4 -5 14 -19 14 -40c0 -11 -4 -37 -29 -54c-29 -18 -83 -18 -86 -18c-23 0 -55 4 -59 4
c-8 2 -17 4 -26 6l1 30c15 -2 48 -4 62 0c19 6 23 20 23 27c0 27 -32 29 -35 29v123z" />
    <glyph glyph-name="eacute" unicode="&#xe9;" 
d="M243 169h115v-41c0 -18 0 -29 -5 -46c-20 -72 -84 -92 -152 -92c-105 0 -141 52 -154 98c-8 25 -9 61 -9 67v216c1 8 1 42 13 69c25 60 91 82 151 82c83 0 129 -42 144 -73c9 -18 11 -34 14 -73v-146h-203v-84c0 -18 0 -25 3 -34c8 -26 31 -29 41 -29c19 0 32 10 38 28
c2 6 3 18 3 18zM157 314h85v63c0 11 2 51 -41 51c-43 -1 -43 -38 -44 -51v-63zM200 725h156c-23 -24 -46 -47 -67 -70c-21 -21 -41 -43 -60 -64l-94 -1z" />
    <glyph glyph-name="egrave" unicode="&#xe8;" 
d="M243 169h115v-41c0 -18 0 -29 -5 -46c-20 -72 -84 -92 -152 -92c-105 0 -141 52 -154 98c-8 25 -9 61 -9 67v216c1 8 1 42 13 69c25 60 91 82 151 82c83 0 129 -42 144 -73c9 -18 11 -34 14 -73v-146h-203v-84c0 -18 0 -25 3 -34c8 -26 31 -29 41 -29c19 0 32 10 38 28
c2 6 3 18 3 18zM157 314h85v63c0 11 2 51 -41 51c-43 -1 -43 -38 -44 -51v-63zM43 706h153l66 -132h-86z" />
    <glyph glyph-name="ecircumflex" unicode="&#xea;" 
d="M243 169h115v-41c0 -18 0 -29 -5 -46c-20 -72 -84 -92 -152 -92c-105 0 -141 52 -154 98c-8 25 -9 61 -9 67v216c1 8 1 42 13 69c25 60 91 82 151 82c83 0 129 -42 144 -73c9 -18 11 -34 14 -73v-146h-203v-84c0 -18 0 -25 3 -34c8 -26 31 -29 41 -29c19 0 32 10 38 28
c2 6 3 18 3 18zM157 314h85v63c0 11 2 51 -41 51c-43 -1 -43 -38 -44 -51v-63zM132 706h129l86 -132h-105l-44 73l-48 -73h-104z" />
    <glyph glyph-name="edieresis" unicode="&#xeb;" 
d="M243 169h115v-41c0 -18 0 -29 -5 -46c-20 -72 -84 -92 -152 -92c-105 0 -141 52 -154 98c-8 25 -9 61 -9 67v216c1 8 1 42 13 69c25 60 91 82 151 82c83 0 129 -42 144 -73c9 -18 11 -34 14 -73v-146h-203v-84c0 -18 0 -25 3 -34c8 -26 31 -29 41 -29c19 0 32 10 38 28
c2 6 3 18 3 18zM157 314h85v63c0 11 2 51 -41 51c-43 -1 -43 -38 -44 -51v-63zM45 726h119v-125h-120zM228 726h120v-124h-120v124z" />
    <glyph glyph-name="iacute" unicode="&#xed;" horiz-adv-x="208" 
d="M44 512h120v-512h-120v512zM106 725h156c-23 -24 -45 -47 -67 -70c-21 -21 -40 -43 -60 -64l-94 -1z" />
    <glyph glyph-name="igrave" unicode="&#xec;" horiz-adv-x="208" 
d="M44 512h120v-512h-120v512zM-51 706h153l67 -132h-87z" />
    <glyph glyph-name="icircumflex" unicode="&#xee;" horiz-adv-x="208" 
d="M44 512h120v-512h-120v512zM38 706h129l86 -132h-105l-44 73l-48 -73h-104z" />
    <glyph glyph-name="idieresis" unicode="&#xef;" horiz-adv-x="208" 
d="M44 512h120v-512h-120v512zM-48 726h118v-125h-120zM134 726h120v-124h-120v124z" />
    <glyph glyph-name="ntilde" unicode="&#xf1;" horiz-adv-x="417" 
d="M44 512h121l-1 -37c31 30 56 47 102 47c47 0 90 -24 103 -72c3 -14 3 -23 4 -50v-400h-118v377c-1 32 -2 45 -18 55c-4 3 -11 6 -23 6c-56 0 -51 -59 -51 -69v-369h-119v512zM314 698l64 -1c-1 -40 -3 -89 -40 -113c-6 -4 -23 -14 -45 -14c-26 1 -67 18 -90 28
c-15 7 -32 17 -49 17c-33 -1 -41 -33 -44 -41h-65c2 40 6 77 39 105c17 15 36 21 59 21c21 0 44 -6 84 -25c26 -11 41 -19 54 -19c3 0 8 1 14 4c10 6 14 15 19 38z" />
    <glyph glyph-name="oacute" unicode="&#xf3;" 
d="M358 379v-247c-2 -36 -5 -62 -29 -90c-45 -54 -116 -52 -136 -52c-24 0 -42 3 -51 5c-20 4 -75 21 -95 81c-6 17 -8 33 -9 69v229c1 35 4 49 10 65c24 64 91 83 152 83c16 0 114 1 146 -75c8 -18 10 -34 12 -68zM240 126v260c-1 32 -3 46 -19 56c-8 6 -18 6 -22 6
c-13 0 -20 -4 -24 -7c-19 -14 -17 -35 -18 -56v-260c1 -9 -1 -53 41 -53c45 0 42 46 42 54zM200 725h156c-23 -24 -46 -47 -67 -70c-21 -21 -41 -43 -60 -64l-94 -1z" />
    <glyph glyph-name="ograve" unicode="&#xf2;" 
d="M358 379v-247c-2 -36 -5 -62 -29 -90c-45 -54 -116 -52 -136 -52c-24 0 -42 3 -51 5c-20 4 -75 21 -95 81c-6 17 -8 33 -9 69v229c1 35 4 49 10 65c24 64 91 83 152 83c16 0 114 1 146 -75c8 -18 10 -34 12 -68zM240 126v260c-1 32 -3 46 -19 56c-8 6 -18 6 -22 6
c-13 0 -20 -4 -24 -7c-19 -14 -17 -35 -18 -56v-260c1 -9 -1 -53 41 -53c45 0 42 46 42 54zM43 706h153l66 -132h-86z" />
    <glyph glyph-name="ocircumflex" unicode="&#xf4;" 
d="M358 379v-247c-2 -36 -5 -62 -29 -90c-45 -54 -116 -52 -136 -52c-24 0 -42 3 -51 5c-20 4 -75 21 -95 81c-6 17 -8 33 -9 69v229c1 35 4 49 10 65c24 64 91 83 152 83c16 0 114 1 146 -75c8 -18 10 -34 12 -68zM240 126v260c-1 32 -3 46 -19 56c-8 6 -18 6 -22 6
c-13 0 -20 -4 -24 -7c-19 -14 -17 -35 -18 -56v-260c1 -9 -1 -53 41 -53c45 0 42 46 42 54zM132 706h129l86 -132h-105l-44 73l-48 -73h-104z" />
    <glyph glyph-name="otilde" unicode="&#xf5;" 
d="M358 379v-247c-2 -36 -5 -62 -29 -90c-45 -54 -116 -52 -136 -52c-24 0 -42 3 -51 5c-20 4 -75 21 -95 81c-6 17 -8 33 -9 69v229c1 35 4 49 10 65c24 64 91 83 152 83c16 0 114 1 146 -75c8 -18 10 -34 12 -68zM240 126v260c-1 32 -3 46 -19 56c-8 6 -18 6 -22 6
c-13 0 -20 -4 -24 -7c-19 -14 -17 -35 -18 -56v-260c1 -9 -1 -53 41 -53c45 0 42 46 42 54zM303 698l64 -1c-1 -40 -2 -89 -40 -113c-6 -4 -23 -14 -45 -14c-26 1 -67 18 -89 28c-15 7 -32 17 -49 17c-34 -1 -42 -33 -44 -41h-65c2 40 6 77 38 105c18 15 36 21 60 21
c20 0 44 -6 84 -25c25 -11 40 -19 54 -19c3 0 7 1 13 4c11 6 15 15 19 38z" />
    <glyph glyph-name="uacute" unicode="&#xfa;" horiz-adv-x="417" 
d="M44 512h120v-368c-1 -18 -2 -36 11 -49c9 -9 20 -13 32 -13c4 0 19 1 30 10c20 17 16 55 16 58v362h120v-512h-120v42c-13 -12 -52 -51 -109 -51c-10 0 -36 2 -60 18c-41 29 -40 74 -40 117v386zM210 725h156c-23 -24 -45 -47 -67 -70c-21 -21 -40 -43 -60 -64l-94 -1z
" />
    <glyph glyph-name="ugrave" unicode="&#xf9;" horiz-adv-x="417" 
d="M44 512h120v-368c-1 -18 -2 -36 11 -49c9 -9 20 -13 32 -13c4 0 19 1 30 10c20 17 16 55 16 58v362h120v-512h-120v42c-13 -12 -52 -51 -109 -51c-10 0 -36 2 -60 18c-41 29 -40 74 -40 117v386zM53 706h153l67 -132h-87z" />
    <glyph glyph-name="ucircumflex" unicode="&#xfb;" horiz-adv-x="417" 
d="M44 512h120v-368c-1 -18 -2 -36 11 -49c9 -9 20 -13 32 -13c4 0 19 1 30 10c20 17 16 55 16 58v362h120v-512h-120v42c-13 -12 -52 -51 -109 -51c-10 0 -36 2 -60 18c-41 29 -40 74 -40 117v386zM142 706h129l86 -132h-105l-44 73l-48 -73h-104z" />
    <glyph glyph-name="Agrave" unicode="&#xc0;" horiz-adv-x="437" 
d="M147 706h149l132 -706h-132l-17 115h-120l-19 -115h-130zM175 224h90l-43 303zM63 895h154l66 -133h-86z" />
    <glyph glyph-name="Atilde" unicode="&#xc3;" horiz-adv-x="437" 
d="M147 706h149l132 -706h-132l-17 115h-120l-19 -115h-130zM175 224h90l-43 303zM324 886h64c-1 -40 -2 -90 -40 -114c-6 -4 -23 -13 -45 -13c-26 0 -67 17 -89 27c-16 8 -32 17 -49 17c-34 0 -42 -33 -44 -41l-65 1c1 40 5 76 38 104c18 15 36 21 59 21c21 0 45 -6 85 -24
c25 -12 40 -19 54 -19c3 0 7 0 13 3c11 6 15 16 19 38z" />
    <glyph glyph-name="Otilde" unicode="&#xd5;" horiz-adv-x="479" 
d="M44 151v396c0 15 -3 86 44 128c26 23 75 46 154 46c102 0 156 -42 177 -83c11 -23 15 -45 16 -94v-393c-1 -45 -7 -86 -41 -119c-42 -39 -99 -47 -153 -47c-52 0 -105 7 -147 41c-21 17 -31 34 -35 44c-12 25 -14 55 -15 81zM175 530v-357c0 -21 0 -47 12 -65
c16 -21 47 -21 53 -21s25 0 41 12c24 16 23 45 23 71v365c0 4 3 36 -8 57c-6 13 -21 31 -54 31c-7 0 -26 -1 -42 -13c-29 -20 -24 -51 -25 -80zM345 886h64c-1 -40 -2 -90 -40 -114c-6 -4 -23 -13 -45 -13c-26 0 -67 17 -89 27c-16 8 -32 17 -50 17c-33 0 -41 -33 -43 -41
l-65 1c1 40 5 76 38 104c18 15 36 21 59 21c21 0 44 -6 84 -24c26 -12 41 -19 55 -19c2 0 7 0 13 3c11 6 14 16 19 38z" />
    <glyph glyph-name="ydieresis" unicode="&#xff;" horiz-adv-x="354" 
d="M1 512h118l66 -329l51 329h117l-117 -549c-12 -53 -22 -82 -39 -103c-19 -23 -45 -37 -104 -37c-30 0 -47 4 -77 9l18 94c8 -2 23 -7 45 -7c41 0 47 36 54 67l1 14zM25 726h118v-125h-120zM207 726h120v-124h-120v124z" />
    <glyph glyph-name="Ydieresis" unicode="&#x178;" horiz-adv-x="417" 
d="M1 706h137l72 -356l69 356h137l-141 -497v-209h-133v218zM52 883h117v-121h-117v121zM253 883h116v-121h-116v121z" />
    <glyph glyph-name="Acircumflex" unicode="&#xc2;" horiz-adv-x="437" 
d="M147 706h149l132 -706h-132l-17 115h-120l-19 -115h-130zM175 224h90l-43 303zM153 895h128l86 -133h-104l-44 73l-48 -73h-104z" />
    <glyph glyph-name="Ecircumflex" unicode="&#xca;" horiz-adv-x="417" 
d="M50 706h342v-107h-212v-166h200v-107h-200v-217h222v-109h-352v706zM142 895h129l86 -133h-105l-44 73l-48 -73h-104z" />
    <glyph glyph-name="Aacute" unicode="&#xc1;" horiz-adv-x="437" 
d="M147 706h149l132 -706h-132l-17 115h-120l-19 -115h-130zM175 224h90l-43 303zM220 897h156l-127 -134h-93z" />
    <glyph glyph-name="Edieresis" unicode="&#xcb;" horiz-adv-x="417" 
d="M50 706h342v-107h-212v-166h200v-107h-200v-217h222v-109h-352v706zM52 883h117v-121h-117v121zM253 883h116v-121h-116v121z" />
    <glyph glyph-name="Egrave" unicode="&#xc8;" horiz-adv-x="417" 
d="M50 706h342v-107h-212v-166h200v-107h-200v-217h222v-109h-352v706zM53 895h153l67 -133h-87z" />
    <glyph glyph-name="Iacute" unicode="&#xcd;" horiz-adv-x="229" 
d="M50 706h129v-706h-129v706zM116 897h155l-126 -134h-93z" />
    <glyph glyph-name="Icircumflex" unicode="&#xce;" horiz-adv-x="229" 
d="M50 706h129v-706h-129v706zM48 895h129l86 -133h-104l-44 73l-48 -73h-105z" />
    <glyph glyph-name="Idieresis" unicode="&#xcf;" horiz-adv-x="229" 
d="M50 706h129v-706h-129v706zM-42 883h117v-121h-117v121zM160 883h116v-121h-116v121z" />
    <glyph glyph-name="Igrave" unicode="&#xcc;" horiz-adv-x="229" 
d="M50 706h129v-706h-129v706zM-41 895h154l66 -133h-86z" />
    <glyph glyph-name="Oacute" unicode="&#xd3;" horiz-adv-x="479" 
d="M44 151v396c0 15 -3 86 44 128c26 23 75 46 154 46c102 0 156 -42 177 -83c11 -23 15 -45 16 -94v-393c-1 -45 -7 -86 -41 -119c-42 -39 -99 -47 -153 -47c-52 0 -105 7 -147 41c-21 17 -31 34 -35 44c-12 25 -14 55 -15 81zM175 530v-357c0 -21 0 -47 12 -65
c16 -21 47 -21 53 -21s25 0 41 12c24 16 23 45 23 71v365c0 4 3 36 -8 57c-6 13 -21 31 -54 31c-7 0 -26 -1 -42 -13c-29 -20 -24 -51 -25 -80zM241 897h155l-126 -134h-93z" />
    <glyph glyph-name="Ocircumflex" unicode="&#xd4;" horiz-adv-x="479" 
d="M44 151v396c0 15 -3 86 44 128c26 23 75 46 154 46c102 0 156 -42 177 -83c11 -23 15 -45 16 -94v-393c-1 -45 -7 -86 -41 -119c-42 -39 -99 -47 -153 -47c-52 0 -105 7 -147 41c-21 17 -31 34 -35 44c-12 25 -14 55 -15 81zM175 530v-357c0 -21 0 -47 12 -65
c16 -21 47 -21 53 -21s25 0 41 12c24 16 23 45 23 71v365c0 4 3 36 -8 57c-6 13 -21 31 -54 31c-7 0 -26 -1 -42 -13c-29 -20 -24 -51 -25 -80zM173 895h129l86 -133h-104l-44 73l-48 -73h-105z" />
    <glyph glyph-name="Ograve" unicode="&#xd2;" horiz-adv-x="479" 
d="M44 151v396c0 15 -3 86 44 128c26 23 75 46 154 46c102 0 156 -42 177 -83c11 -23 15 -45 16 -94v-393c-1 -45 -7 -86 -41 -119c-42 -39 -99 -47 -153 -47c-52 0 -105 7 -147 41c-21 17 -31 34 -35 44c-12 25 -14 55 -15 81zM175 530v-357c0 -21 0 -47 12 -65
c16 -21 47 -21 53 -21s25 0 41 12c24 16 23 45 23 71v365c0 4 3 36 -8 57c-6 13 -21 31 -54 31c-7 0 -26 -1 -42 -13c-29 -20 -24 -51 -25 -80zM84 895h154l66 -133h-86z" />
    <glyph glyph-name="Uacute" unicode="&#xda;" horiz-adv-x="479" 
d="M49 706h130v-525c1 -19 0 -38 7 -55c13 -29 46 -30 54 -30c6 0 23 0 38 11c25 17 22 50 22 75v524h131v-547c-2 -42 -4 -77 -32 -113c-50 -65 -146 -61 -163 -61c-52 0 -106 11 -144 51c-7 7 -21 24 -30 48c-10 25 -12 53 -13 78v544zM241 897h155l-126 -134h-93z" />
    <glyph glyph-name="Ucircumflex" unicode="&#xdb;" horiz-adv-x="479" 
d="M49 706h130v-525c1 -19 0 -38 7 -55c13 -29 46 -30 54 -30c6 0 23 0 38 11c25 17 22 50 22 75v524h131v-547c-2 -42 -4 -77 -32 -113c-50 -65 -146 -61 -163 -61c-52 0 -106 11 -144 51c-7 7 -21 24 -30 48c-10 25 -12 53 -13 78v544zM173 895h129l86 -133h-104l-44 73
l-48 -73h-105z" />
    <glyph glyph-name="Ugrave" unicode="&#xd9;" horiz-adv-x="479" 
d="M49 706h130v-525c1 -19 0 -38 7 -55c13 -29 46 -30 54 -30c6 0 23 0 38 11c25 17 22 50 22 75v524h131v-547c-2 -42 -4 -77 -32 -113c-50 -65 -146 -61 -163 -61c-52 0 -106 11 -144 51c-7 7 -21 24 -30 48c-10 25 -12 53 -13 78v544zM84 895h154l66 -133h-86z" />
    </font>
</defs>
</svg>
